<?xml version="1.0" encoding="utf-8"?>
<!-- Generator: Adobe Illustrator 17.0.0, SVG Export Plug-In . SVG Version: 6.00 Build 0)  -->
<!DOCTYPE svg PUBLIC "-//W3C//DTD SVG 1.0//EN" "http://www.w3.org/TR/2001/REC-SVG-20010904/DTD/svg10.dtd">
<svg version="1.0" id="Layer_1" xmlns="http://www.w3.org/2000/svg" xmlns:xlink="http://www.w3.org/1999/xlink" x="0px" y="0px"
	 width="64px" height="64px" viewBox="0 0 64 64" enable-background="new 0 0 64 64" xml:space="preserve">
<g>
	<path fill="#F59F36" d="M17.428,52.179c-2.347,0-4.117-1.653-4.117-3.847v-6.215c0-1.661,1.02-3.093,2.478-3.726
		c-1.485-0.569-2.478-1.909-2.478-3.552v-6.214c0-1.661,1.02-3.093,2.478-3.726c-1.485-0.569-2.478-1.909-2.478-3.552v-6.215
		c0-2.245,1.863-4.072,4.153-4.072h27.967c2.29,0,4.153,1.827,4.153,4.072v6.215c-0.001,1.643-0.995,2.982-2.479,3.552
		c1.458,0.632,2.479,2.064,2.479,3.726v6.214c-0.001,1.643-0.995,2.982-2.479,3.552c1.458,0.632,2.479,2.064,2.479,3.726v6.215
		c-0.002,2.193-1.772,3.847-4.118,3.847H17.428z M41.611,44.748c-0.246,0-0.453,0.165-0.453,0.361c0,0.195,0.207,0.36,0.453,0.36
		s0.453-0.165,0.453-0.36C42.064,44.913,41.857,44.748,41.611,44.748z M41.611,31.256c-0.246,0-0.453,0.166-0.453,0.361
		c0,0.195,0.207,0.36,0.453,0.36s0.453-0.165,0.453-0.36C42.064,31.421,41.857,31.256,41.611,31.256z M41.611,17.764
		c-0.246,0-0.453,0.165-0.453,0.361s0.207,0.361,0.453,0.361s0.453-0.165,0.453-0.361S41.857,17.764,41.611,17.764z"/>
	<path fill="#FFFFFF" d="M45.431,13.061c1.193,0,2.153,0.923,2.153,2.072v6.215c-0.001,1.149-0.925,1.847-2.118,1.847H17.428
		c-1.193,0-2.117-0.698-2.117-1.847v-6.215c0-1.149,0.959-2.072,2.153-2.072H45.431 M41.611,20.486c1.355,0,2.453-1.057,2.453-2.361
		c0-1.304-1.098-2.361-2.453-2.361c-1.355,0-2.453,1.057-2.453,2.361C39.158,19.429,40.256,20.486,41.611,20.486 M45.431,26.554
		c1.193,0,2.153,0.923,2.153,2.072v6.214c-0.001,1.149-0.925,1.847-2.118,1.847H17.428c-1.193,0-2.117-0.698-2.117-1.847v-6.214
		c0-1.149,0.959-2.072,2.153-2.072H45.431 M41.611,33.978c1.355,0,2.453-1.057,2.453-2.361c0-1.304-1.098-2.361-2.453-2.361
		c-1.355,0-2.453,1.057-2.453,2.361C39.158,32.921,40.256,33.978,41.611,33.978 M45.431,40.046c1.193,0,2.153,0.923,2.153,2.071
		v6.215c-0.001,1.149-0.925,1.847-2.118,1.847H17.428c-1.193,0-2.117-0.698-2.117-1.847v-6.215c0-1.149,0.959-2.071,2.153-2.071
		H45.431 M41.611,47.47c1.355,0,2.453-1.057,2.453-2.361c0-1.304-1.098-2.361-2.453-2.361c-1.355,0-2.453,1.057-2.453,2.361
		C39.158,46.413,40.256,47.47,41.611,47.47 M45.431,9.061H17.464c-3.393,0-6.153,2.724-6.153,6.072v6.215
		c0,1.391,0.458,2.638,1.244,3.621c-0.781,1.018-1.244,2.285-1.244,3.657v6.214c0,1.39,0.458,2.638,1.244,3.621
		c-0.781,1.018-1.244,2.285-1.244,3.656v6.215c0,3.333,2.63,5.847,6.117,5.847h28.038c3.485,0,6.115-2.512,6.118-5.844v-6.218
		c0-1.372-0.464-2.639-1.245-3.657c0.786-0.981,1.244-2.228,1.245-3.616v-6.217c0-1.372-0.464-2.64-1.245-3.658
		c0.786-0.981,1.244-2.228,1.245-3.616v-6.218C51.584,11.785,48.824,9.061,45.431,9.061L45.431,9.061z"/>
</g>
</svg>
