<?xml version="1.0" encoding="utf-8"?>
<!-- Generator: Adobe Illustrator 17.0.0, SVG Export Plug-In . SVG Version: 6.00 Build 0)  -->
<!DOCTYPE svg PUBLIC "-//W3C//DTD SVG 1.0//EN" "http://www.w3.org/TR/2001/REC-SVG-20010904/DTD/svg10.dtd">
<svg version="1.0" id="Layer_1" xmlns="http://www.w3.org/2000/svg" xmlns:xlink="http://www.w3.org/1999/xlink" x="0px" y="0px"
	 width="64px" height="64px" viewBox="0 0 64 64" enable-background="new 0 0 64 64" xml:space="preserve">
<g>
	<path fill="#EA5153" d="M30.917,60.193c-0.586-0.516-14.451-12.776-22.073-25.605l-1.795-3.021h0.119L6.82,30.849
		C0.565,17.933,5.61,11.636,10.943,8.627c2.587-1.459,5.216-2.199,7.812-2.199c6.361,0,10.949,4.351,13.275,7.207
		c2.327-2.856,6.915-7.207,13.276-7.207c2.597,0,5.226,0.74,7.812,2.199c5.328,3.006,10.391,9.298,4.253,22.209l-0.348,0.73h0.118
		l-1.761,3.01c-7.507,12.832-21.235,25.095-21.816,25.61l-1.321,1.174L30.917,60.193z"/>
	<path fill="#FFFFFF" d="M45.307,8.428c2.083,0,4.37,0.554,6.83,1.941c7.62,4.299,7.145,11.79,3.428,19.608h-14.8l-1.741-3.589
		h-3.482l-4.756,12.254l-3.949-17.637h-3.483l-2.487,8.972H8.62c-3.786-7.818-4.315-15.309,3.306-19.608
		c2.46-1.388,4.747-1.941,6.83-1.941c8.227,0,13.275,8.639,13.275,8.639S37.079,8.428,45.307,8.428 M24.91,27.954l3.668,16.378
		h3.482l5.416-13.956l1.548,3.19h1.741h1.741h11.149c-7.432,12.705-21.417,25.125-21.417,25.125s-14.126-12.42-21.675-25.125h9.309
		h1.741h1.741L24.91,27.954 M45.307,4.428c-5.919,0-10.435,3.297-13.276,6.219c-2.841-2.922-7.357-6.219-13.275-6.219
		c-2.945,0-5.904,0.827-8.795,2.457c-4.734,2.67-11.532,9.097-5.91,22.681H3.533l2.396,4.032l0.184,0.379h0.042l0.97,1.632
		c7.782,13.098,21.876,25.562,22.473,26.086l2.654,2.334l2.643-2.347c0.59-0.524,14.549-12.993,22.214-26.096l0.941-1.609h0.044
		l0.189-0.398l2.347-4.013h-0.512c5.521-13.59-1.287-20.014-6.015-22.681C51.211,5.254,48.252,4.428,45.307,4.428L45.307,4.428z"/>
</g>
</svg>
