<?xml version="1.0" encoding="utf-8"?>
<!-- Generator: Adobe Illustrator 17.0.0, SVG Export Plug-In . SVG Version: 6.00 Build 0)  -->
<!DOCTYPE svg PUBLIC "-//W3C//DTD SVG 1.0//EN" "http://www.w3.org/TR/2001/REC-SVG-20010904/DTD/svg10.dtd">
<svg version="1.0" id="Layer_1" xmlns="http://www.w3.org/2000/svg" xmlns:xlink="http://www.w3.org/1999/xlink" x="0px" y="0px"
	 width="64px" height="64px" viewBox="0 0 64 64" enable-background="new 0 0 64 64" xml:space="preserve">
<g>
	<g>
		<g>
			<path fill="#646463" d="M16.523,53.254c-3.359,0-6.092-2.764-6.092-6.161V16.31c0-3.397,2.733-6.161,6.092-6.161h30.923
				c3.359,0,6.092,2.764,6.092,6.161v30.783c0,3.397-2.732,6.161-6.092,6.161H16.523z M19.524,26.913
				c0.821-0.806,1.945-1.304,3.184-1.304c0,0,3.153,0,3.184,0.001v-0.092c0-2.507,2.039-4.546,4.546-4.546h3.092
				c0.109,0,0.219,0.004,0.327,0.012c0.221-0.661,0.591-1.255,1.068-1.742H19.524V26.913z"/>
			<path fill="#FFFFFF" d="M47.446,13.149c1.708,0,3.092,1.415,3.092,3.161v30.783c0,1.746-1.384,3.161-3.092,3.161H16.523
				c-1.708,0-3.092-1.415-3.092-3.161V16.31c0-1.747,1.383-3.161,3.092-3.161H47.446 M18.07,39.431H45.9
				c0.943,0,1.546-0.582,1.546-1.546V17.788c0-0.964-0.603-1.546-1.546-1.546H18.07c-0.943,0-1.546,0.582-1.546,1.546v20.097
				C16.524,38.849,17.127,39.431,18.07,39.431 M31.984,47.161c1.281,0,2.319-1.038,2.319-2.319c0-1.281-1.038-2.319-2.319-2.319
				s-2.319,1.038-2.319,2.319C29.665,46.123,30.703,47.161,31.984,47.161 M41.261,20.879c0.854,0,1.546,0.692,1.546,1.546h0.001
				v10.822h-6.185V22.425c0-0.854,0.692-1.546,1.546-1.546H41.261 M33.53,23.972c0.854,0,1.546,0.692,1.546,1.546h0.001v7.73h-6.185
				v-7.73c0-0.854,0.692-1.546,1.546-1.546H33.53 M25.8,28.609c0.854,0,1.546,0.692,1.546,1.546h0.001v3.092h-6.185v-3.092
				c0-0.854,0.692-1.546,1.546-1.546H25.8 M43.58,34.793c0.427,0,0.773,0.346,0.773,0.773c0,0.427-0.346,0.773-0.773,0.773H20.388
				c-0.427,0-0.773-0.346-0.773-0.773c0-0.427,0.346-0.773,0.773-0.773H43.58 M47.446,7.149H16.523c-5.013,0-9.092,4.11-9.092,9.161
				v30.783c0,5.051,4.079,9.161,9.092,9.161h30.923c5.013,0,9.092-4.11,9.092-9.161V16.31C56.538,11.259,52.459,7.149,47.446,7.149
				L47.446,7.149z M22.524,22.242h1.117c-0.058,0.12-0.114,0.243-0.166,0.367h-0.767c-0.061,0-0.123,0.001-0.184,0.002V22.242
				L22.524,22.242z"/>
		</g>
	</g>
</g>
</svg>
